<?xml version="1.0" standalone="no"?><!DOCTYPE svg PUBLIC "-//W3C//DTD SVG 1.1//EN" "http://www.w3.org/Graphics/SVG/1.1/DTD/svg11.dtd"><svg xmlns:xlink="http://www.w3.org/1999/xlink" height="320" width="640" xmlns="http://www.w3.org/2000/svg" style="font-family:'lucida grande', 'lucida sans unicode', arial, helvetica, sans-serif;font-size:12px;" version="1.1"><desc>Created with Highstock 2.0.1</desc><defs><clipPath id="highcharts-18"><rect height="255" width="557" y="0" x="0"></rect></clipPath><clipPath id="highcharts-19"><rect height="255" width="557" y="0" x="0"></rect></clipPath></defs><rect class=" highcharts-background" fill="#FFFFFF" strokeWidth="0" height="320" width="640" y="0" x="0"></rect><rect fill="#f9f9f9" height="255" width="557" y="15" x="10"></rect><path stroke-width="1" stroke="silver" d="M 10 270.5 L 567 270.5" fill="none"></path><image xlink:href="http://static.amigobulls.com/v2images/small_amigobulls.png" height="23" width="97" y="290" x="530" preserveAspectRatio="none"></image><rect  fill="none" stroke-width="1" stroke="#C0C0C0" strokeWidth="-1" height="254" width="556" y="15.5" x="10.5"></rect><g  class="highcharts-axis"></g><g  class="highcharts-series-group"><g clip-path="url(#highcharts-19)" transform="translate(10,15) scale(1 1)"  visibility="visible" class="highcharts-series"><rect stroke-width="0.00001" ry="0" rx="0" fill="#ffbc75" stroke="#FFFFFF" height="10" width="11" y="246" x="284"></rect><rect stroke-width="0.00001" ry="0" rx="0" fill="#ffbc75" stroke="#FFFFFF" height="62" width="11" y="194" x="305"></rect><rect stroke-width="0.00001" ry="0" rx="0" fill="#ffbc75" stroke="#FFFFFF" height="115" width="11" y="141" x="327"></rect><rect stroke-width="0.00001" ry="0" rx="0" fill="#ffbc75" stroke="#FFFFFF" height="83" width="11" y="173" x="348"></rect><rect stroke-width="0.00001" ry="0" rx="0" fill="#ffbc75" stroke="#FFFFFF" height="88" width="11" y="168" x="370"></rect><rect stroke-width="0.00001" ry="0" rx="0" fill="#ffbc75" stroke="#FFFFFF" height="126" width="11" y="130" x="391"></rect><rect stroke-width="0.00001" ry="0" rx="0" fill="#ffbc75" stroke="#FFFFFF" height="127" width="11" y="129" x="413"></rect><rect stroke-width="0.00001" ry="0" rx="0" fill="#ffbc75" stroke="#FFFFFF" height="157" width="11" y="99" x="434"></rect><rect stroke-width="0.00001" ry="0" rx="0" fill="#ffbc75" stroke="#FFFFFF" height="174" width="11" y="82" x="455"></rect><rect stroke-width="0.00001" ry="0" rx="0" fill="#ffbc75" stroke="#FFFFFF" height="195" width="11" y="61" x="477"></rect><rect stroke-width="0.00001" ry="0" rx="0" fill="#ffbc75" stroke="#FFFFFF" height="192" width="11" y="64" x="498"></rect><rect stroke-width="0.00001" ry="0" rx="0" fill="#ffbc75" stroke="#FFFFFF" height="195" width="11" y="61" x="520"></rect><rect stroke-width="0.00001" ry="0" rx="0" fill="#ffbc75" stroke="#FFFFFF" height="191" width="11" y="65" x="541"></rect><rect stroke-width="0.00001" ry="0" rx="0" fill="#ffbc75" stroke="#FFFFFF" height="5" width="11" y="251" x="6"></rect><rect stroke-width="0.00001" ry="0" rx="0" fill="#ffbc75" stroke="#FFFFFF" height="9" width="11" y="247" x="27"></rect><rect stroke-width="0.00001" ry="0" rx="0" fill="#ffbc75" stroke="#FFFFFF" height="4" width="11" y="252" x="48"></rect><rect stroke-width="0.00001" ry="0" rx="0" fill="#ffbc75" stroke="#FFFFFF" height="4" width="11" y="252" x="70"></rect><rect stroke-width="0.00001" ry="0" rx="0" fill="#ffbc75" stroke="#FFFFFF" height="6" width="11" y="250" x="91"></rect><rect stroke-width="0.00001" ry="0" rx="0" fill="#ffbc75" stroke="#FFFFFF" height="6" width="11" y="250" x="113"></rect><rect stroke-width="0.00001" ry="0" rx="0" fill="#ffbc75" stroke="#FFFFFF" height="7" width="11" y="249" x="134"></rect><rect stroke-width="0.00001" ry="0" rx="0" fill="#ffbc75" stroke="#FFFFFF" height="10" width="11" y="246" x="156"></rect><rect stroke-width="0.00001" ry="0" rx="0" fill="#ffbc75" stroke="#FFFFFF" height="12" width="11" y="244" x="177"></rect><rect stroke-width="0.00001" ry="0" rx="0" fill="#ffbc75" stroke="#FFFFFF" height="12" width="11" y="244" x="198"></rect><rect stroke-width="0.00001" ry="0" rx="0" fill="#ffbc75" stroke="#FFFFFF" height="8" width="11" y="248" x="220"></rect><rect stroke-width="0.00001" ry="0" rx="0" fill="#ffbc75" stroke="#FFFFFF" height="6" width="11" y="250" x="241"></rect><rect stroke-width="0.00001" ry="0" rx="0" fill="#ffbc75" stroke="#FFFFFF" height="5" width="11" y="251" x="263"></rect></g><g clip-path="none" transform="translate(10,15) scale(1 1)"  visibility="visible" class="highcharts-markers"></g></g><g  class="highcharts-grid"></g><g  class="highcharts-grid"><path opacity="1"  stroke-width="0.3" stroke="#C0C0C0" d="M 10 15.15 L 567 15.15" fill="none"></path><path opacity="1"  stroke-width="0.3" stroke="#C0C0C0" d="M 10 66.15 L 567 66.15" fill="none"></path><path opacity="1"  stroke-width="0.3" stroke="#C0C0C0" d="M 10 117.15 L 567 117.15" fill="none"></path><path opacity="1"  stroke-width="0.3" stroke="#C0C0C0" d="M 10 168.15 L 567 168.15" fill="none"></path><path opacity="1"  stroke-width="0.3" stroke="#C0C0C0" d="M 10 219.15 L 567 219.15" fill="none"></path><path opacity="1"  stroke-width="0.3" stroke="#C0C0C0" d="M 10 270.15 L 567 270.15" fill="none"></path></g><g transform="translate(15,25)"  class="highcharts-legend"><g ><g><g transform="translate(8,3)"  class="highcharts-legend-item"><text  text-anchor="start" style="color:#333333;font-size:12px;font-weight:bold;cursor:pointer;fill:#333333;" y="15" x="21"><tspan>TSLA revenue</tspan></text><rect fill="#ffbc75"  height="12" width="16" y="4" x="0"></rect></g></g></g></g><g  class="highcharts-axis-labels highcharts-xaxis-labels"><text opacity="1" y="290" style="color:black;cursor:default;font-size:11px;fill:black;" text-anchor="middle" x="106.40384615384616"><tspan>Jun '10</tspan></text><text opacity="1" y="290" style="color:black;cursor:default;font-size:11px;fill:black;" text-anchor="middle" x="192.09615384615384"><tspan>Jun '11</tspan></text><text opacity="1" y="290" style="color:black;cursor:default;font-size:11px;fill:black;" text-anchor="middle" x="277.78846153846155"><tspan>Jun '12</tspan></text><text opacity="1" y="290" style="color:black;cursor:default;font-size:11px;fill:black;" text-anchor="middle" x="363.4807692307692"><tspan>Jun '13</tspan></text><text opacity="1" y="290" style="color:black;cursor:default;font-size:11px;fill:black;" text-anchor="middle" x="449.1730769230769"><tspan>Jun '14</tspan></text><text opacity="1" y="290" style="color:black;cursor:default;font-size:11px;fill:black;" text-anchor="middle" x="534.8653846153846"><tspan>Jun '15</tspan></text><text opacity="1" y="290" style="color:black;cursor:default;font-size:11px;fill:black;" text-anchor="middle" x="27.5"><tspan>Jun '09</tspan></text></g><g  class="highcharts-axis-labels highcharts-yaxis-labels"><text opacity="1" y="274" style="width:1px;color:black;cursor:default;font-size:11px;fill:black;" text-anchor="start" x="573">0M</text><text opacity="1" y="223" style="width:1px;color:black;cursor:default;font-size:11px;fill:black;" text-anchor="start" x="573">250M</text><text opacity="1" y="172" style="width:1px;color:black;cursor:default;font-size:11px;fill:black;" text-anchor="start" x="573">500M</text><text opacity="1" y="121" style="width:1px;color:black;cursor:default;font-size:11px;fill:black;" text-anchor="start" x="573">750M</text><text opacity="1" y="70" style="width:1px;color:black;cursor:default;font-size:11px;fill:black;" text-anchor="start" x="573">1000M</text><text y="-9999" style="width:1px;color:black;cursor:default;font-size:11px;fill:black;" text-anchor="start" x="0">1250M</text></g><g transform="translate(0,-9999)" style="cursor:default;padding:0;white-space:nowrap;"  class="highcharts-tooltip"><path transform="translate(1, 1)" stroke-opacity="0.049999999999999996" stroke="black"  stroke-width="5" d="M 3 0 L 13 0 C 16 0 16 0 16 3 L 16 13 C 16 16 16 16 13 16 L 3 16 C 0 16 0 16 0 13 L 0 3 C 0 0 0 0 3 0" fill="none"></path><path transform="translate(1, 1)" stroke-opacity="0.09999999999999999" stroke="black"  stroke-width="3" d="M 3 0 L 13 0 C 16 0 16 0 16 3 L 16 13 C 16 16 16 16 13 16 L 3 16 C 0 16 0 16 0 13 L 0 3 C 0 0 0 0 3 0" fill="none"></path><path transform="translate(1, 1)" stroke-opacity="0.15" stroke="black"  stroke-width="1" d="M 3 0 L 13 0 C 16 0 16 0 16 3 L 16 13 C 16 16 16 16 13 16 L 3 16 C 0 16 0 16 0 13 L 0 3 C 0 0 0 0 3 0" fill="none"></path><path stroke-width="1" d="M 3 0 L 13 0 C 16 0 16 0 16 3 L 16 13 C 16 16 16 16 13 16 L 3 16 C 0 16 0 16 0 13 L 0 3 C 0 0 0 0 3 0" fill="rgb(249, 249, 249)" fill-opacity=" .85"></path><text y="19" style="font-size:10px;color:#333333;fill:#333333;"  x="8"></text></g><text y="306" style="cursor:pointer;color:#000000;font-size:9px;fill:#000000;"  text-anchor="end" x="528"><tspan>24/01/2016 à 18:16:36 EDT powered by </tspan></text><g  class="highcharts-axis"><text y="142.5" visibility="visible" style="color:black;fill:black;" class=" highcharts-yaxis-title" transform="translate(0,0) rotate(90 616 142.5)" text-anchor="middle"  x="616">revenue</text></g></svg>