<?xml version="1.0" standalone="no"?><!DOCTYPE svg PUBLIC "-//W3C//DTD SVG 1.1//EN" "http://www.w3.org/Graphics/SVG/1.1/DTD/svg11.dtd"><svg xmlns:xlink="http://www.w3.org/1999/xlink" height="320" width="640" xmlns="http://www.w3.org/2000/svg" style="font-family:'lucida grande', 'lucida sans unicode', arial, helvetica, sans-serif;font-size:12px;" version="1.1"><desc>Created with Highstock 2.0.1</desc><defs><clipPath id="highcharts-21"><rect height="255" width="559" y="0" x="0"></rect></clipPath><clipPath id="highcharts-22"><rect height="255" width="559" y="0" x="0"></rect></clipPath></defs><rect class=" highcharts-background" fill="#FFFFFF" strokeWidth="0" height="320" width="640" y="0" x="0"></rect><rect fill="#f9f9f9" height="255" width="559" y="15" x="10"></rect><path stroke-width="1" stroke="silver" d="M 10 58.5 L 569 58.5" fill="none"></path><image xlink:href="http://static.amigobulls.com/v2images/small_amigobulls.png" height="23" width="97" y="290" x="530" preserveAspectRatio="none"></image><rect  fill="none" stroke-width="1" stroke="#C0C0C0" strokeWidth="-1" height="254" width="558" y="15.5" x="10.5"></rect><g  class="highcharts-axis"></g><g  class="highcharts-series-group"><g clip-path="url(#highcharts-22)" transform="translate(10,15) scale(1 1)"  visibility="visible" class="highcharts-series"><rect stroke-width="0.00001" ry="0" rx="0" fill="#95CEFF" stroke="#FFFFFF" height="94" width="11" y="44" x="285"></rect><rect stroke-width="0.00001" ry="0" rx="0" fill="#95CEFF" stroke="#FFFFFF" height="76" width="11" y="44" x="307"></rect><rect stroke-width="0.00001" ry="0" rx="0" fill="#95CEFF" stroke="#FFFFFF" height="10" width="11" y="34" x="328"></rect><rect stroke-width="0.00001" ry="0" rx="0" fill="#95CEFF" stroke="#FFFFFF" height="25" width="11" y="44" x="350"></rect><rect stroke-width="0.00001" ry="0" rx="0" fill="#95CEFF" stroke="#FFFFFF" height="32" width="11" y="44" x="371"></rect><rect stroke-width="0.00001" ry="0" rx="0" fill="#95CEFF" stroke="#FFFFFF" height="13" width="11" y="44" x="393"></rect><rect stroke-width="0.00001" ry="0" rx="0" fill="#95CEFF" stroke="#FFFFFF" height="42" width="11" y="44" x="414"></rect><rect stroke-width="0.00001" ry="0" rx="0" fill="#95CEFF" stroke="#FFFFFF" height="52" width="11" y="44" x="436"></rect><rect stroke-width="0.00001" ry="0" rx="0" fill="#95CEFF" stroke="#FFFFFF" height="63" width="11" y="44" x="457"></rect><rect stroke-width="0.00001" ry="0" rx="0" fill="#95CEFF" stroke="#FFFFFF" height="91" width="11" y="44" x="479"></rect><rect stroke-width="0.00001" ry="0" rx="0" fill="#95CEFF" stroke="#FFFFFF" height="131" width="11" y="44" x="500"></rect><rect stroke-width="0.00001" ry="0" rx="0" fill="#95CEFF" stroke="#FFFFFF" height="156" width="11" y="44" x="522"></rect><rect stroke-width="0.00001" ry="0" rx="0" fill="#95CEFF" stroke="#FFFFFF" height="195" width="11" y="44" x="543"></rect><rect stroke-width="0.00001" ry="0" rx="0" fill="#95CEFF" stroke="#FFFFFF" height="9" width="11" y="44" x="6"></rect><rect stroke-width="0.00001" ry="0" rx="0" fill="#95CEFF" stroke="#FFFFFF" height="3" width="11" y="44" x="27"></rect><rect stroke-width="0.00001" ry="0" rx="0" fill="#95CEFF" stroke="#FFFFFF" height="20" width="11" y="44" x="49"></rect><rect stroke-width="0.00001" ry="0" rx="0" fill="#95CEFF" stroke="#FFFFFF" height="25" width="11" y="44" x="70"></rect><rect stroke-width="0.00001" ry="0" rx="0" fill="#95CEFF" stroke="#FFFFFF" height="32" width="11" y="44" x="92"></rect><rect stroke-width="0.00001" ry="0" rx="0" fill="#95CEFF" stroke="#FFFFFF" height="29" width="11" y="44" x="113"></rect><rect stroke-width="0.00001" ry="0" rx="0" fill="#95CEFF" stroke="#FFFFFF" height="43" width="11" y="44" x="135"></rect><rect stroke-width="0.00001" ry="0" rx="0" fill="#95CEFF" stroke="#FFFFFF" height="41" width="11" y="44" x="156"></rect><rect stroke-width="0.00001" ry="0" rx="0" fill="#95CEFF" stroke="#FFFFFF" height="50" width="11" y="44" x="178"></rect><rect stroke-width="0.00001" ry="0" rx="0" fill="#95CEFF" stroke="#FFFFFF" height="55" width="11" y="44" x="199"></rect><rect stroke-width="0.00001" ry="0" rx="0" fill="#95CEFF" stroke="#FFFFFF" height="69" width="11" y="44" x="221"></rect><rect stroke-width="0.00001" ry="0" rx="0" fill="#95CEFF" stroke="#FFFFFF" height="76" width="11" y="44" x="242"></rect><rect stroke-width="0.00001" ry="0" rx="0" fill="#95CEFF" stroke="#FFFFFF" height="89" width="11" y="44" x="264"></rect></g><g clip-path="none" transform="translate(10,15) scale(1 1)"  visibility="visible" class="highcharts-markers"></g></g><g  class="highcharts-grid"></g><g  class="highcharts-grid"><path opacity="1"  stroke-width="0.3" stroke="#C0C0C0" d="M 10 14.85 L 569 14.85" fill="none"></path><path opacity="1"  stroke-width="0.3" stroke="#C0C0C0" d="M 10 58.15 L 569 58.15" fill="none"></path><path opacity="1"  stroke-width="0.3" stroke="#C0C0C0" d="M 10 100.15 L 569 100.15" fill="none"></path><path opacity="1"  stroke-width="0.3" stroke="#C0C0C0" d="M 10 143.15 L 569 143.15" fill="none"></path><path opacity="1"  stroke-width="0.3" stroke="#C0C0C0" d="M 10 185.15 L 569 185.15" fill="none"></path><path opacity="1"  stroke-width="0.3" stroke="#C0C0C0" d="M 10 228.15 L 569 228.15" fill="none"></path><path opacity="1"  stroke-width="0.3" stroke="#C0C0C0" d="M 10 270.15 L 569 270.15" fill="none"></path></g><g transform="translate(15,25)"  class="highcharts-legend"><g ><g><g transform="translate(8,3)"  class="highcharts-legend-item"><text  text-anchor="start" style="color:#333333;font-size:12px;font-weight:bold;cursor:pointer;fill:#333333;" y="15" x="21"><tspan>TSLA net income</tspan></text><rect fill="#95CEFF"  height="12" width="16" y="4" x="0"></rect></g></g></g></g><g  class="highcharts-axis-labels highcharts-xaxis-labels"><text opacity="1" y="290" style="color:black;cursor:default;font-size:11px;fill:black;" text-anchor="middle" x="106.75"><tspan>Jun '10</tspan></text><text opacity="1" y="290" style="color:black;cursor:default;font-size:11px;fill:black;" text-anchor="middle" x="192.75"><tspan>Jun '11</tspan></text><text opacity="1" y="290" style="color:black;cursor:default;font-size:11px;fill:black;" text-anchor="middle" x="278.75"><tspan>Jun '12</tspan></text><text opacity="1" y="290" style="color:black;cursor:default;font-size:11px;fill:black;" text-anchor="middle" x="364.75"><tspan>Jun '13</tspan></text><text opacity="1" y="290" style="color:black;cursor:default;font-size:11px;fill:black;" text-anchor="middle" x="450.75000000000006"><tspan>Jun '14</tspan></text><text opacity="1" y="290" style="color:black;cursor:default;font-size:11px;fill:black;" text-anchor="middle" x="536.75"><tspan>Jun '15</tspan></text><text opacity="1" y="290" style="color:black;cursor:default;font-size:11px;fill:black;" text-anchor="middle" x="27.5"><tspan>Jun '09</tspan></text></g><g  class="highcharts-axis-labels highcharts-yaxis-labels"><text opacity="1" y="274" style="width:1px;color:black;cursor:default;font-size:11px;fill:black;" text-anchor="start" x="575">-250M</text><text opacity="1" y="231.5" style="width:1px;color:black;cursor:default;font-size:11px;fill:black;" text-anchor="start" x="575">-200M</text><text opacity="1" y="189" style="width:1px;color:black;cursor:default;font-size:11px;fill:black;" text-anchor="start" x="575">-150M</text><text opacity="1" y="146.5" style="width:1px;color:black;cursor:default;font-size:11px;fill:black;" text-anchor="start" x="575">-100M</text><text opacity="1" y="104" style="width:1px;color:black;cursor:default;font-size:11px;fill:black;" text-anchor="start" x="575">-50M</text><text opacity="1" y="61.5" style="width:1px;color:black;cursor:default;font-size:11px;fill:black;" text-anchor="start" x="575">0M</text><text y="-9999" style="width:1px;color:black;cursor:default;font-size:11px;fill:black;" text-anchor="start" x="0">50M</text></g><g transform="translate(0,-9999)" style="cursor:default;padding:0;white-space:nowrap;"  class="highcharts-tooltip"><path transform="translate(1, 1)" stroke-opacity="0.049999999999999996" stroke="black"  stroke-width="5" d="M 3 0 L 13 0 C 16 0 16 0 16 3 L 16 13 C 16 16 16 16 13 16 L 3 16 C 0 16 0 16 0 13 L 0 3 C 0 0 0 0 3 0" fill="none"></path><path transform="translate(1, 1)" stroke-opacity="0.09999999999999999" stroke="black"  stroke-width="3" d="M 3 0 L 13 0 C 16 0 16 0 16 3 L 16 13 C 16 16 16 16 13 16 L 3 16 C 0 16 0 16 0 13 L 0 3 C 0 0 0 0 3 0" fill="none"></path><path transform="translate(1, 1)" stroke-opacity="0.15" stroke="black"  stroke-width="1" d="M 3 0 L 13 0 C 16 0 16 0 16 3 L 16 13 C 16 16 16 16 13 16 L 3 16 C 0 16 0 16 0 13 L 0 3 C 0 0 0 0 3 0" fill="none"></path><path stroke-width="1" d="M 3 0 L 13 0 C 16 0 16 0 16 3 L 16 13 C 16 16 16 16 13 16 L 3 16 C 0 16 0 16 0 13 L 0 3 C 0 0 0 0 3 0" fill="rgb(249, 249, 249)" fill-opacity=" .85"></path><text y="19" style="font-size:10px;color:#333333;fill:#333333;"  x="8"></text></g><text y="306" style="cursor:pointer;color:#000000;font-size:9px;fill:#000000;"  text-anchor="end" x="528"><tspan>24/01/2016 à 18:18:16 EDT powered by </tspan></text><g  class="highcharts-axis"><text y="142.5" visibility="visible" style="color:black;fill:black;" class=" highcharts-yaxis-title" transform="translate(0,0) rotate(90 616 142.5)" text-anchor="middle"  x="616"><tspan>Net Income</tspan></text></g></svg>